<svg width="31" height="32" viewBox="0 0 31 32" fill="none" xmlns="http://www.w3.org/2000/svg">
<path d="M0 12.1497V23.9002L2.50752 25.4996V18.9947H5.24777L5.1508 27.1846L7.87166 28.9198V6.10339L0 12.1497ZM5.24777 16.2567H2.39572V13.975L5.24777 12.1497V16.2567ZM20.9751 30.1393L18.1961 31.943V18.8806H12.0927V32L9.35472 30.0606V4.7344L15.5722 0L20.9751 4.51651V30.1393ZM27.836 18.8806H25.098V27.4424L22.3692 29.1377V5.68242L30.1747 12.2068V24.1854L27.836 25.6856V18.8806ZM25.098 12.3779V16.2567H27.836V14.6595L25.098 12.3779ZM12.0927 6.90196V16.2567H18.1961V6.78788L15.4581 4.33512L12.0927 6.90196Z" fill="black"/>
</svg>
