<svg width="24" height="24" viewBox="0 0 24 24" fill="none" xmlns="http://www.w3.org/2000/svg">
<path d="M7.25793 12.4515L7.18807 12.4936L7.1289 12.5497L4.90106 14.664V13.3313C4.90106 12.644 4.3315 12.1289 3.6811 12.1289H2.14199C1.89802 12.1289 1.75 11.9459 1.75 11.7795V4.09941C1.75 3.9327 1.89832 3.75 2.14199 3.75H13.858C14.102 3.75 14.25 3.93299 14.25 4.09941L14.25 11.7795L14.25 11.7824C14.2506 11.9439 14.1047 12.1289 13.858 12.1289H8.41826C8.00918 12.1289 7.60742 12.2408 7.25793 12.4515Z" stroke="#4263EB" stroke-width="1.5"/>
<path d="M15.9224 18.1039L15.8627 18.0467L15.792 18.0039C15.4116 17.7737 14.9723 17.6488 14.5207 17.6488H8.30431C7.97471 17.6488 7.74899 17.3958 7.75001 17.1337V17.1308V8.26799C7.75001 8.00109 7.97741 7.75 8.30431 7.75H21.6957C22.0226 7.75 22.25 8.00109 22.25 8.26799V17.1308C22.25 17.3977 22.0226 17.6488 21.6957 17.6488H19.935C19.2439 17.6488 18.6476 18.1984 18.6476 18.9212V20.7133L15.9224 18.1039Z" fill="white" stroke="#4263EB" stroke-width="1.5"/>
</svg>
