<svg width="24" height="24" viewBox="0 0 24 24" fill="none" xmlns="http://www.w3.org/2000/svg">
<path d="M22.5 19C22.5 19.3517 22.3055 19.7515 21.8096 20.1778C21.3153 20.6028 20.5708 21.0082 19.6073 21.3585C17.6845 22.0577 14.9949 22.5 12 22.5C9.00506 22.5 6.31554 22.0577 4.3927 21.3585C3.42922 21.0082 2.6847 20.6028 2.1904 20.1778C1.69447 19.7515 1.5 19.3517 1.5 19C1.5 18.6483 1.69447 18.2485 2.1904 17.8222C2.6847 17.3972 3.42922 16.9918 4.3927 16.6415C6.31554 15.9423 9.00506 15.5 12 15.5C14.9949 15.5 17.6845 15.9423 19.6073 16.6415C20.5708 16.9918 21.3153 17.3972 21.8096 17.8222C22.3055 18.2485 22.5 18.6483 22.5 19Z" fill="white" stroke="#4263EB"/>
<path d="M22.5 14C22.5 14.3517 22.3055 14.7515 21.8096 15.1778C21.3153 15.6028 20.5708 16.0082 19.6073 16.3585C17.6845 17.0577 14.9949 17.5 12 17.5C9.00506 17.5 6.31554 17.0577 4.3927 16.3585C3.42922 16.0082 2.6847 15.6028 2.1904 15.1778C1.69447 14.7515 1.5 14.3517 1.5 14C1.5 13.6483 1.69447 13.2485 2.1904 12.8222C2.6847 12.3972 3.42922 11.9918 4.3927 11.6415C6.31554 10.9423 9.00506 10.5 12 10.5C14.9949 10.5 17.6845 10.9423 19.6073 11.6415C20.5708 11.9918 21.3153 12.3972 21.8096 12.8222C22.3055 13.2485 22.5 13.6483 22.5 14Z" fill="white" stroke="#4263EB"/>
<path d="M22.5 9C22.5 9.35173 22.3055 9.75147 21.8096 10.1778C21.3153 10.6028 20.5708 11.0082 19.6073 11.3585C17.6845 12.0577 14.9949 12.5 12 12.5C9.00506 12.5 6.31554 12.0577 4.3927 11.3585C3.42922 11.0082 2.6847 10.6028 2.1904 10.1778C1.69447 9.75147 1.5 9.35173 1.5 9C1.5 8.64827 1.69447 8.24853 2.1904 7.82216C2.6847 7.39719 3.42922 6.99183 4.3927 6.64147C6.31554 5.94225 9.00506 5.5 12 5.5C14.9949 5.5 17.6845 5.94225 19.6073 6.64147C20.5708 6.99183 21.3153 7.39719 21.8096 7.82216C22.3055 8.24853 22.5 8.64827 22.5 9Z" fill="white" stroke="#4263EB"/>
<path d="M22.5 5C22.5 5.35173 22.3055 5.75147 21.8096 6.17784C21.3153 6.60281 20.5708 7.00817 19.6073 7.35853C17.6845 8.05775 14.9949 8.5 12 8.5C9.00506 8.5 6.31554 8.05775 4.3927 7.35853C3.42922 7.00817 2.6847 6.60281 2.1904 6.17784C1.69447 5.75147 1.5 5.35173 1.5 5C1.5 4.64827 1.69447 4.24853 2.1904 3.82216C2.6847 3.39719 3.42922 2.99183 4.3927 2.64147C6.31554 1.94225 9.00506 1.5 12 1.5C14.9949 1.5 17.6845 1.94225 19.6073 2.64147C20.5708 2.99183 21.3153 3.39719 21.8096 3.82216C22.3055 4.24853 22.5 4.64827 22.5 5Z" fill="white" stroke="#4263EB"/>
</svg>
