<svg width="25" height="24" viewBox="0 0 25 24" fill="none" xmlns="http://www.w3.org/2000/svg">
<path d="M3.5 17V23H21.5V17" stroke="#4263EB" stroke-width="1.5" stroke-linecap="round"/>
<mask id="path-2-inside-1_15_1164" fill="white">
<path d="M3 3V12H22V3C22 1.89543 21.1046 1 20 1H5C3.89543 1 3 1.89543 3 3Z"/>
</mask>
<path d="M3 12H1.5V13.5H3V12ZM22 12V13.5H23.5V12H22ZM4.5 12V3H1.5V12H4.5ZM5 2.5H20V-0.5H5V2.5ZM20.5 3V12H23.5V3H20.5ZM3 13.5H22V10.5H3V13.5ZM20 2.5C20.2761 2.5 20.5 2.72386 20.5 3H23.5C23.5 1.067 21.933 -0.5 20 -0.5V2.5ZM4.5 3C4.5 2.72386 4.72386 2.5 5 2.5V-0.5C3.067 -0.5 1.5 1.067 1.5 3H4.5Z" fill="#4263EB" mask="url(#path-2-inside-1_15_1164)"/>
<path d="M6.25 9C6.25 9.41421 6.58579 9.75 7 9.75C7.41421 9.75 7.75 9.41421 7.75 9H6.25ZM7 5L7.6 4.55C7.40631 4.29174 7.06909 4.1864 6.76283 4.28849C6.45657 4.39057 6.25 4.67718 6.25 5H7ZM10 9L9.4 9.45C9.59369 9.70826 9.93091 9.8136 10.2372 9.71151C10.5434 9.60943 10.75 9.32282 10.75 9H10ZM10.75 5C10.75 4.58579 10.4142 4.25 10 4.25C9.58579 4.25 9.25 4.58579 9.25 5H10.75ZM7.75 9V5H6.25V9H7.75ZM6.4 5.45L9.4 9.45L10.6 8.55L7.6 4.55L6.4 5.45ZM10.75 9V5H9.25V9H10.75Z" fill="#4263EB"/>
<path d="M12 9V7M14 5H12V7M12 7H14M16 5H17.5M19 5H17.5M17.5 5V9" stroke="#4263EB" stroke-width="1.5" stroke-linecap="round" stroke-linejoin="round"/>
<path d="M5.68931 18.25C3.79321 18.25 2.32418 16.8524 2.25272 15.1954L3.52286 11.75H21.4771L22.7473 15.1954C22.6758 16.8524 21.2068 18.25 19.3107 18.25C18.1392 18.25 17.1179 17.7095 16.5011 16.903L15.9053 16.124L15.3096 16.903C14.6928 17.7095 13.6715 18.25 12.5 18.25C11.3285 18.25 10.3072 17.7095 9.69041 16.903L9.09465 16.124L8.4989 16.903C7.88214 17.7095 6.86084 18.25 5.68931 18.25Z" stroke="#4263EB" stroke-width="1.5"/>
</svg>
