<svg width="24" height="24" viewBox="0 0 24 24" fill="none" xmlns="http://www.w3.org/2000/svg">
<mask id="path-1-inside-1_15_1145" fill="white">
<path d="M11.4855 0.308698C11.8022 0.118689 12.1978 0.118688 12.5145 0.308697L21.5145 5.7087C21.8157 5.88942 22 6.21493 22 6.56619V17.4338C22 17.7851 21.8157 18.1106 21.5145 18.2913L12.5145 23.6913C12.1978 23.8813 11.8022 23.8813 11.4855 23.6913L2.4855 18.2913C2.1843 18.1106 2 17.7851 2 17.4338V6.56619C2 6.21493 2.1843 5.88942 2.4855 5.7087L11.4855 0.308698Z"/>
</mask>
<path d="M2.4855 5.7087L3.25725 6.99494L2.4855 5.7087ZM2.4855 18.2913L1.71376 19.5775L2.4855 18.2913ZM12.5145 23.6913L13.2862 24.9775L12.5145 23.6913ZM11.4855 23.6913L10.7138 24.9775L11.4855 23.6913ZM21.5145 18.2913L22.2862 19.5775L21.5145 18.2913ZM21.5145 5.7087L20.7428 6.99494L21.5145 5.7087ZM11.7428 1.59494L20.7428 6.99494L22.2862 4.42246L13.2862 -0.977542L11.7428 1.59494ZM20.5 6.56619V17.4338H23.5V6.56619H20.5ZM20.7428 17.0051L11.7428 22.4051L13.2862 24.9775L22.2862 19.5775L20.7428 17.0051ZM12.2572 22.4051L3.25725 17.0051L1.71376 19.5775L10.7138 24.9775L12.2572 22.4051ZM3.5 17.4338V6.56619H0.5V17.4338H3.5ZM3.25725 6.99494L12.2572 1.59494L10.7138 -0.977541L1.71376 4.42246L3.25725 6.99494ZM3.5 6.56619C3.5 6.74182 3.40785 6.90457 3.25725 6.99494L1.71376 4.42246C0.960747 4.87427 0.5 5.68803 0.5 6.56619H3.5ZM3.25725 17.0051C3.40785 17.0954 3.5 17.2582 3.5 17.4338H0.5C0.5 18.312 0.960749 19.1257 1.71376 19.5775L3.25725 17.0051ZM11.7428 22.4051C11.9011 22.3101 12.0989 22.3101 12.2572 22.4051L10.7138 24.9775C11.5055 25.4526 12.4945 25.4526 13.2862 24.9775L11.7428 22.4051ZM20.5 17.4338C20.5 17.2582 20.5921 17.0954 20.7428 17.0051L22.2862 19.5775C23.0393 19.1257 23.5 18.312 23.5 17.4338H20.5ZM20.7428 6.99494C20.5921 6.90458 20.5 6.74182 20.5 6.56619H23.5C23.5 5.68803 23.0393 4.87427 22.2862 4.42246L20.7428 6.99494ZM13.2862 -0.977542C12.4945 -1.45257 11.5055 -1.45256 10.7138 -0.977541L12.2572 1.59494C12.0989 1.68994 11.9011 1.68994 11.7428 1.59494L13.2862 -0.977542Z" fill="#4263EB" mask="url(#path-1-inside-1_15_1145)"/>
<path d="M5 16V8.25L8 17.5V6M11 20V12M14 5.5L12 4L11 5V12M11 12H15M16 7L17.75 8.25M19.5 9.5L17.75 8.25M17.75 8.25V16.5" stroke="#4263EB" stroke-width="1.5" stroke-linecap="round" stroke-linejoin="round"/>
</svg>
