<svg width="20" height="20" viewBox="0 0 20 20" fill="none" xmlns="http://www.w3.org/2000/svg">
<path d="M18 15.4429C18 15.6596 17.9618 15.8621 17.8855 16.0503C17.8091 16.2385 17.7004 16.404 17.5595 16.5465C17.4185 16.6891 17.254 16.8004 17.0661 16.8802C16.8781 16.9601 16.6725 17 16.4493 17H3.65639C3.43319 17 3.22173 16.9601 3.02203 16.8802C2.82232 16.8004 2.64611 16.6891 2.49339 16.5465C2.34068 16.404 2.22026 16.2385 2.13216 16.0503C2.04405 15.8621 2 15.6596 2 15.4429V6.90429C2 6.4708 2.15565 6.1029 2.46696 5.8006C2.77827 5.4983 3.15712 5.34715 3.60352 5.34715H16.3965C16.8429 5.34715 17.2217 5.4983 17.533 5.8006C17.8443 6.1029 18 6.4708 18 6.90429V9.23143H14C13.5536 9.23143 13.1747 9.37973 12.8634 9.67633C12.5521 9.97293 12.3965 10.338 12.3965 10.7715C12.4082 11.0681 12.4728 11.3304 12.5903 11.5586C12.6843 11.7525 12.8399 11.9293 13.0573 12.089C13.2746 12.2487 13.5888 12.3286 14 12.3286H18V15.4429ZM15.6035 4.56003H7.60352C8.23788 4.24062 8.837 3.93261 9.40088 3.63601C9.89427 3.38505 10.3818 3.13408 10.8634 2.88311C11.3451 2.63215 11.721 2.43822 11.9912 2.30133C12.4023 2.08458 12.7695 1.98477 13.0925 2.00188C13.4156 2.01899 13.6887 2.07318 13.9119 2.16444C14.1703 2.28992 14.3935 2.45533 14.5815 2.66067L15.6035 4.56003ZM13.207 10.7715C13.207 10.5547 13.2834 10.3722 13.4361 10.2239C13.5888 10.0756 13.7768 10.0014 14 10.0014C14.2232 10.0014 14.4112 10.0756 14.5639 10.2239C14.7166 10.3722 14.793 10.5547 14.793 10.7715C14.793 10.9882 14.7166 11.1736 14.5639 11.3276C14.4112 11.4816 14.2232 11.5586 14 11.5586C13.7768 11.5586 13.5888 11.4816 13.4361 11.3276C13.2834 11.1736 13.207 10.9882 13.207 10.7715Z" fill="#423DF7"/>
</svg>
