<svg width="16" height="16" viewBox="0 0 16 16" fill="none" xmlns="http://www.w3.org/2000/svg">
<path d="M1 15L15 15" stroke="#C6C6C6" stroke-width="1.2" stroke-linecap="round" stroke-linejoin="round"/>
<path d="M3 12V8L9.58579 1.41421C10.3668 0.633165 11.6332 0.633164 12.4142 1.41421L13.5858 2.58579C14.3668 3.36683 14.3668 4.63316 13.5858 5.41421L7 12H3Z" stroke="#C6C6C6" stroke-width="1.2" stroke-linecap="round" stroke-linejoin="round"/>
<path d="M12.4142 1.41421L13.5858 2.58579C14.3668 3.36683 14.3668 4.63316 13.5858 5.41421L11.9142 7.08579C11.1332 7.86684 9.86684 7.86684 9.08579 7.08579L7.91421 5.91421C7.13317 5.13317 7.13316 3.86684 7.91421 3.08579L9.58579 1.41421C10.3668 0.633165 11.6332 0.633164 12.4142 1.41421Z" stroke="#C6C6C6" stroke-width="1.2" stroke-linecap="round" stroke-linejoin="round"/>
</svg>
