<svg width="20" height="20" viewBox="0 0 20 20" fill="none" xmlns="http://www.w3.org/2000/svg">
<path d="M8.16062 2.32969H2.80355C2.35983 2.32969 2 2.70084 2 3.1583V8.68081C2 9.13829 2.35983 9.50945 2.80355 9.50945H8.16062C8.60381 9.50945 8.96413 9.13829 8.96413 8.68083V3.1583C8.96413 2.70083 8.60379 2.32969 8.16062 2.32969ZM16.3961 10.8206H11.0389C10.5952 10.8206 10.2355 11.1914 10.2355 11.6489V17.1717C10.2355 17.6292 10.5952 18 11.0389 18H16.3962C16.8395 18 17.1995 17.6292 17.1995 17.1718V11.6489C17.1995 11.1914 16.8395 10.8206 16.3961 10.8206ZM17.6076 4.44404L13.2782 2.08768C12.9201 1.89252 12.476 2.03419 12.2863 2.40312L10.0005 6.86752C9.81152 7.23757 9.94875 7.69468 10.3075 7.89057L14.637 10.2466C14.9956 10.4417 15.4404 10.3001 15.6297 9.93074L17.9148 5.4671C18.1043 5.09706 17.9671 4.63922 17.6076 4.44406V4.44404ZM8.16062 10.8206H2.80355C2.35983 10.8206 2 11.1914 2 11.6489V17.1717C2 17.6292 2.35983 18 2.80355 18H8.16062C8.60381 18 8.96413 17.6292 8.96413 17.1718V11.6489C8.96413 11.1914 8.60379 10.8206 8.16062 10.8206Z" fill="#423DF7"/>
</svg>
