<svg width="60" height="60" viewBox="0 0 60 60" fill="none" xmlns="http://www.w3.org/2000/svg">
<path opacity="0.1" d="M6 55.5C6 56.2957 8.52856 57.0587 13.0294 57.6213C17.5303 58.1839 23.6348 58.5 30 58.5C36.3652 58.5 42.4697 58.1839 46.9706 57.6213C51.4714 57.0587 54 56.2957 54 55.5C54 54.7044 51.4714 53.9413 46.9706 53.3787C42.4697 52.8161 36.3652 52.5 30 52.5C23.6348 52.5 17.5303 52.8161 13.0294 53.3787C8.52856 53.9413 6 54.7044 6 55.5Z" fill="#4A68CC"/>
<path opacity="0.5" d="M50.77 35.3041V35.2441C50.77 35.1841 50.74 35.1541 50.74 35.0941V35.0641L44.29 18.2341C43.36 15.3841 40.72 13.4641 37.72 13.4641H23.05C20.05 13.4641 17.41 15.3841 16.48 18.2341L10.03 35.0641V35.0941C10 35.1541 10 35.1841 10 35.2441V47.3641C10 51.1741 13.09 54.2641 16.9 54.2641H43.9C47.71 54.2641 50.8 51.1741 50.8 47.3641V35.3641C50.77 35.3341 50.77 35.3341 50.77 35.3041ZM18.16 18.8641C18.16 18.8641 18.16 18.8341 18.19 18.8341C18.85 16.6741 20.83 15.2641 23.05 15.2641H37.69C39.91 15.2641 41.89 16.6741 42.58 18.8041C42.58 18.8041 42.58 18.8341 42.61 18.8341L48.58 34.4341H34.87C34.36 34.4341 33.97 34.8241 33.97 35.3341C33.97 37.3141 32.35 38.9341 30.37 38.9341C28.39 38.9341 26.77 37.3141 26.77 35.3341C26.77 34.8241 26.38 34.4341 25.87 34.4341H12.19L18.16 18.8641ZM48.97 47.3641C48.97 50.1841 46.69 52.4641 43.87 52.4641H16.87C14.05 52.4641 11.77 50.1841 11.77 47.3641V36.2641H25.06C25.48 38.8141 27.7 40.7641 30.37 40.7641C33.04 40.7641 35.26 38.8141 35.68 36.2641H48.97V47.3641Z" fill="#4A68CC"/>
<rect x="29" y="1" width="2" height="8" fill="#A4B3E5"/>
<rect x="40.37" y="3" width="2" height="8" transform="rotate(30 40.37 3)" fill="#A4B3E5"/>
<rect x="17" y="4.03589" width="2" height="8" transform="rotate(-30 17 4.03589)" fill="#A4B3E5"/>
<path opacity="0.2" d="M30.37 36.8641C29.53 36.8641 28.87 36.2041 28.87 35.3641V32.3641H15.22L20.14 19.5241L20.17 19.4641C20.59 18.2041 21.73 17.3641 23.05 17.3641H37.69C39.01 17.3641 40.15 18.2041 40.57 19.4641L40.6 19.5241L45.52 32.3641H31.87V35.3641C31.87 36.2041 31.21 36.8641 30.37 36.8641Z" fill="#4A68CC"/>
</svg>
