<svg width="20" height="20" viewBox="0 0 20 20" fill="none" xmlns="http://www.w3.org/2000/svg">
<path fill-rule="evenodd" clip-rule="evenodd" d="M4.33546 2H15.5463C16.2808 2 16.88 2.5992 16.8817 3.33546V16.4106C16.8817 17.1469 16.2825 17.7461 15.5463 17.7461H4.33546C3.5992 17.7461 3 17.1469 3 16.4106V3.33546C3 2.5992 3.5992 2 4.33546 2ZM6.60749 5.10669H13.2742C13.6432 5.10669 13.942 5.40542 13.942 5.77442C13.942 6.14343 13.6432 6.44215 13.2742 6.44215H6.60749C6.23848 6.44215 5.93976 6.14343 5.93976 5.77442C5.93976 5.40542 6.23848 5.10669 6.60749 5.10669ZM6.60749 13.2916H13.2742C13.6432 13.2916 13.942 13.5904 13.942 13.9594C13.942 14.3284 13.6432 14.6271 13.2742 14.6271H6.60749C6.23848 14.6271 5.93976 14.3284 5.93976 13.9594C5.93976 13.5904 6.23848 13.2916 6.60749 13.2916ZM6.48273 12.3146C6.35094 12.3146 6.2174 12.276 6.09967 12.1934C5.79919 11.9808 5.72539 11.5643 5.93801 11.2639L7.19439 9.4768C7.41228 9.16578 7.75493 8.96371 8.13097 8.91978C8.507 8.87585 8.88655 8.99534 9.16946 9.24661L10.6016 10.5188L12.6346 7.70908C12.8508 7.41036 13.2672 7.34359 13.5659 7.55972C13.8646 7.77585 13.9314 8.1923 13.7153 8.49102L11.6787 11.3025C11.4573 11.6065 11.1182 11.8051 10.7439 11.8455C10.3714 11.8859 9.99534 11.7664 9.71419 11.5169L8.28208 10.2447L7.02921 12.0317C6.89918 12.2162 6.69184 12.3146 6.48273 12.3146Z" fill="#423DF7"/>
</svg>
