<svg width="20" height="20" viewBox="0 0 20 20" fill="none" xmlns="http://www.w3.org/2000/svg">
<path d="M9.5 12.914L8.086 11.5C7.99225 11.4062 7.86506 11.3534 7.73243 11.3534C7.59979 11.3534 7.47257 11.406 7.37875 11.4998C7.28493 11.5935 7.2322 11.7207 7.23215 11.8533C7.2321 11.986 7.28475 12.1132 7.3785 12.207L9.1465 13.975C9.24026 14.0687 9.36742 14.1214 9.5 14.1214C9.63258 14.1214 9.75974 14.0687 9.8535 13.975L13.7425 10.086C13.8363 9.99225 13.8891 9.86506 13.8891 9.73243C13.8891 9.59979 13.8365 9.47257 13.7428 9.37875C13.649 9.28493 13.5218 9.2322 13.3892 9.23215C13.2565 9.2321 13.1293 9.28475 13.0355 9.3785L9.5 12.914ZM14.475 4H17C17.2652 4 17.5196 4.10536 17.7071 4.29289C17.8946 4.48043 18 4.73478 18 5V17C18 17.2652 17.8946 17.5196 17.7071 17.7071C17.5196 17.8946 17.2652 18 17 18H3C2.73478 18 2.48043 17.8946 2.29289 17.7071C2.10536 17.5196 2 17.2652 2 17V5C2 4.73478 2.10536 4.48043 2.29289 4.29289C2.48043 4.10536 2.73478 4 3 4H5.525C5.5085 4.081 5.5 4.1645 5.5 4.25V5.25C5.5 5.58152 5.6317 5.89946 5.86612 6.13388C6.10054 6.3683 6.41848 6.5 6.75 6.5C7.08152 6.5 7.39946 6.3683 7.63388 6.13388C7.8683 5.89946 8 5.58152 8 5.25V4.25C8 4.1645 7.9915 4.081 7.975 4H12.025C12.0085 4.081 12 4.1645 12 4.25V5.25C12 5.58152 12.1317 5.89946 12.3661 6.13388C12.6005 6.3683 12.9185 6.5 13.25 6.5C13.5815 6.5 13.8995 6.3683 14.1339 6.13388C14.3683 5.89946 14.5 5.58152 14.5 5.25V4.25C14.5 4.1645 14.4915 4.081 14.475 4ZM6.75 2C6.94891 2 7.13968 2.07902 7.28033 2.21967C7.42098 2.36032 7.5 2.55109 7.5 2.75V5.25C7.5 5.44891 7.42098 5.63968 7.28033 5.78033C7.13968 5.92098 6.94891 6 6.75 6C6.55109 6 6.36032 5.92098 6.21967 5.78033C6.07902 5.63968 6 5.44891 6 5.25V2.75C6 2.55109 6.07902 2.36032 6.21967 2.21967C6.36032 2.07902 6.55109 2 6.75 2ZM13.25 2C13.4489 2 13.6397 2.07902 13.7803 2.21967C13.921 2.36032 14 2.55109 14 2.75V5.25C14 5.44891 13.921 5.63968 13.7803 5.78033C13.6397 5.92098 13.4489 6 13.25 6C13.0511 6 12.8603 5.92098 12.7197 5.78033C12.579 5.63968 12.5 5.44891 12.5 5.25V2.75C12.5 2.55109 12.579 2.36032 12.7197 2.21967C12.8603 2.07902 13.0511 2 13.25 2Z" fill="#423DF7"/>
</svg>
