<svg width="60" height="60" viewBox="0 0 60 60" fill="none" xmlns="http://www.w3.org/2000/svg">
<circle cx="30" cy="30" r="30" fill="white"/>
<path d="M34.0621 43.8803V48.5865L29.9414 51L25.9418 48.5865V43.8803L29.9414 46.2938L34.0621 43.8803ZM12 27.5856L15.9996 29.999V38.0861L22.9099 42.1889V46.8952L12 40.4995V27.5856ZM47.8808 27.5856V40.4995L36.8497 46.8952V42.1889L43.76 38.0861V29.999L47.8808 27.5856ZM36.8497 21.1899L40.9705 23.6034V28.3096L34.0602 32.4125V40.6202L30.0606 43.0336L26.061 40.6202V32.4125L18.9083 28.3096V23.6034L23.0291 21.1899L29.9394 25.2928L36.8497 21.1899ZM18.9103 31.6904L22.9099 34.1039V38.8101L18.9103 36.3966V31.6904ZM40.9724 31.6904V36.3966L36.9728 38.8101V34.1039L40.9724 31.6904ZM15.9996 17.087L20.1203 19.5005L15.9996 21.9139V26.6202L12 24.2067V19.5005L15.9996 17.087ZM43.8792 17.087L48 19.5005V24.2067L43.8792 26.6202V21.9139L39.8797 19.5005L43.8792 17.087ZM29.9394 17.087L34.0602 19.5005L29.9394 21.9139L25.9398 19.5005L29.9394 17.087ZM29.9394 9L40.9705 15.3957L36.9709 17.8091L30.0606 13.7062L23.0291 17.8091L19.0295 15.3957L29.9394 9Z" fill="#F0B90B"/>
</svg>
