<svg width="60" height="60" viewBox="0 0 60 60" fill="none" xmlns="http://www.w3.org/2000/svg">
<path fill-rule="evenodd" clip-rule="evenodd" d="M33.1047 8.22485C32.1546 8.77085 31.0766 9.05482 29.9808 9.04773C28.8842 9.05407 27.8057 8.7683 26.8561 8.2198C25.9065 7.67129 25.1201 6.87983 24.5777 5.92676L21.8118 1.13653C27.1539 -0.378843 32.8122 -0.378843 38.1543 1.13653L35.3884 5.94007C34.8428 6.8904 34.0548 7.67885 33.1047 8.22485ZM34.8825 16.6848C33.3923 15.8266 31.7006 15.3803 29.981 15.3918C28.2603 15.3826 26.568 15.8312 25.0779 16.6917C23.5878 17.5522 22.3533 18.7936 21.5012 20.2886L5.74482 47.6448C2.01133 42.5174 0 36.3381 0 29.9955C0 23.653 2.01133 17.4737 5.74482 12.3463L14.8817 28.1998L16.9328 24.6482L8.14668 9.41621C11.0359 6.35717 14.534 3.93744 18.4157 2.313C18.443 2.3827 18.4742 2.45087 18.5089 2.51722L21.5012 7.70256C22.3602 9.19156 23.5961 10.4281 25.0847 11.2879C26.5733 12.1477 28.262 12.6003 29.981 12.6003C31.7001 12.6003 33.3888 12.1477 34.8774 11.2879C36.3659 10.4281 37.6019 9.19156 38.4608 7.70256L41.4532 2.53498C41.4897 2.46953 41.5209 2.40124 41.5464 2.33076C45.4293 3.95287 48.9279 6.37292 51.8154 9.43397L43.0292 24.6482L45.0804 28.1998L54.2572 12.333C57.9894 17.4609 59.9999 23.64 59.9999 29.9822C59.9999 36.3245 57.9894 42.5035 54.2572 47.6315L38.4608 20.2752C37.6077 18.7822 36.3727 17.543 34.8825 16.6848ZM26.8587 51.7299C27.8082 51.1838 28.8858 50.9001 29.9811 50.9077C31.0782 50.902 32.1571 51.188 33.1073 51.7364C34.0575 52.2848 34.8448 53.0759 35.3886 54.0287L38.1812 58.8589C32.8203 60.3803 27.1419 60.3803 21.781 58.8589L24.578 54.0154C25.1221 53.0648 25.9092 52.276 26.8587 51.7299ZM29.9812 18.9434C28.8859 18.9357 27.8083 19.2195 26.8588 19.7656C25.9094 20.3117 25.1222 21.1005 24.5781 22.0511L8.12469 50.5571C11.0088 53.6353 14.5073 56.0734 18.3937 57.7136C18.4249 57.6247 18.4635 57.5386 18.5091 57.4561L21.5015 52.2708C22.3604 50.7818 23.5963 49.5452 25.0849 48.6854C26.5735 47.8257 28.2622 47.373 29.9812 47.373C31.7003 47.373 33.389 47.8257 34.8776 48.6854C36.3661 49.5452 37.6021 50.7818 38.461 52.2708L41.4534 57.4561C41.5009 57.5376 41.5396 57.6239 41.5688 57.7136C45.4542 56.0798 48.9528 53.6476 51.8378 50.5749L35.411 22.0821C34.8676 21.1227 34.0778 20.3259 33.1231 19.7741C32.1685 19.2223 31.0838 18.9355 29.9812 18.9434ZM40.9783 35.303L38.461 39.667C37.6021 41.156 36.3661 42.3926 34.8776 43.2523C33.389 44.1121 31.7003 44.5648 29.9812 44.5648C28.2622 44.5648 26.5735 44.1121 25.0849 43.2523C23.5963 42.3926 22.3604 41.156 21.5015 39.667L18.9842 35.303L21.0353 31.7514L24.587 37.8912C25.135 38.8398 25.9229 39.6276 26.8717 40.1752C27.8206 40.7229 28.8968 41.0112 29.9923 41.0112C31.0879 41.0112 32.1641 40.7229 33.1129 40.1752C34.0617 39.6276 34.8497 38.8398 35.3976 37.8912L38.9494 31.7514L40.9783 35.303Z" fill="white"/>
</svg>
